<?xml version="1.0" encoding="UTF-8"?>
<svg id="Ebene_1" xmlns="http://www.w3.org/2000/svg" viewBox="0 0 1920 1080">
  <defs>
    <style>
      .cls-1, .cls-2 {
        fill: #d0466d;
      }

      .cls-2 {
        font-family: Helvetica, Helvetica;
        font-size: 60px;
      }

      .cls-3 {
        fill: #dfbe21;
      }
    </style>
  </defs>
  <g>
    <rect class="cls-3" x="-31.51" y="-19.09" width="2045.62" height="1168.94"/>
    <path class="cls-1" d="M607.45,188.2c.43.19,1.35.88,2.33.97,18.63,1.72,37.12,5.61,55.96,3.75,4.06-.4,5.88,1.4,6.62,4.83,3.12,14.4,9.97,27.6,11.67,42.65,1.99,17.67,7.25,34.96,10.61,52.51,2.77,14.47,4.52,29.13,7.31,43.6,3.84,19.95,2.57,40.15,3.81,60.23.15,2.4.49,4.81,1.02,7.15,2.02,9.03-.81,13.29-9.69,15.51-10.05,2.51-20.38,1.82-30.52,3.15-6.15.81-12.21,2.26-18.36,3.11-5.09.7-10.24,1.36-15.36,1.29-8.58-.12-12.4,4.54-11.42,12.87,2.04,17.34,3.38,34.75,5.06,52.13,1.56,16.08,3.53,32.14,4.66,48.25.91,13,.9,26.06,1.12,39.1.03,2-.26,4.61-1.5,5.92-5.47,5.75-2.9,12.1-1.84,18.27,1.91,11.17,4.11,22.3,6.4,34.62,2.63,1.8,9.11,1.59,8.58,7.56-3.37,3.87-6.39,7.34-9.27,10.64-33.47,2.05-67.18,4.11-101.94,6.23,2,12.06,3.75,23.19,5.71,34.28,2.52,14.25,5.31,28.46,7.73,42.73.5,2.97.45,6.27-.31,9.17-1.25,4.82-6.68,8.54-10.07,6.43-5.16-3.2-10.11-1.11-15.16-1.36-23.65-1.16-47.22.35-70.76,2.14-6.85.52-13.59,2.47-20.42,3.5-4.73.72-9.55,1.46-14.3,1.33-4.58-.12-5.97-3.31-6.31-7.81-1.82-24-4-47.98-6.1-71.96-.08-.97-.64-1.9-1.35-3.89-6.34.81-12.85,1.27-19.2,2.53-19.35,3.84-38.53,8.73-58,11.77-13.6,2.12-27.58,1.88-41.12,2.68-4.12-3.59-5.38-7.45-5.04-12.31.8-11.31,1.62-22.65,1.61-33.97,0-7.16-1.1-14.4-2.46-21.46-.97-5.05-4.33-7.22-9.32-5.06-15.1,6.51-30.82,3.75-46.33,4.11-6.9.16-10.62-3.26-10.71-9.59-.48-32.66-.83-65.32-1.24-97.98-.03-2.06.69-4.94-.4-6.05-7.39-7.57-3.91-16.59-3.99-25.14-.1-10.41-5.57-16.41-15.98-15.6-12.04.94-23.99,3.22-35.96,5-3.08.46-6.1,1.27-9.16,1.86-3.99.77-6.52-1.1-8.62-4.33-5.58-8.62-7.99-18.23-8.73-28.21-.76-10.21-.63-20.49-1.27-30.71-.96-15.44-2.56-30.84-3.27-46.29-.32-6.93-3.78-12.98-5.51-19.28-1.99-7.24-.96-13.47-.12-19.97,1.58-12.26,3.97-24.23,1.59-36.85-1.3-6.85,1.46-14.35,1.2-21.52-.53-14.48-.66-28.92-4.11-43.32-2.76-11.54-1.43-23.8,1.19-35.6,3.88-17.54,3.9-17.46,21.67-16.82,10.08.36,20.17.48,30.25.53,1.62,0,3.25-.94,4.59-1.36,3.72-19.87,7.1-39.37,11.09-58.75,2.46-11.99,2.63-18.59,21.1-13.95,12.7,3.19,25.42,2.83,38.29,2.95,9.66.09,19.3,1.79,28.94,2.88,17.61,2.01,35.24,3.92,52.81,6.19,35.92,4.63,72.13,3.4,108.17,5.5,8.96.52,18.02-.92,27.03-.96,9.68-.05,19.37.43,29.06.76,19.77.66,39.53,1.45,59.3,1.94,2.6.07,5.53-.77,7.81-2.04,7.37-4.12,15.16-4.83,23.17-3.24,5.75,1.14,12,1.98,16.84,4.89,5.89,3.54,2.43,10.83,3.4,16.34,1.9,10.78,2.09,21.85,3.47,32.74.74,5.89,2.47,11.66,4.05,18.83ZM603.11,443.04c.43-.87,1.02-1.49,1-2.08-.74-21.57-1.49-43.13-4.53-64.57-1.93-13.61-3.23-27.35-4.01-41.07-1.11-19.52-1.14-39.1-2.25-58.62-1.33-23.33-3.47-46.62-4.98-69.95-1.46-22.66-2.56-45.35-3.84-68.02-.23-4.13-2.4-6.15-6.7-6.18-6.93-.05-13.86-.43-20.79-.49-21.85-.17-43.7-.43-65.55-.31-26.66.14-53.29-.91-79.97,2.26-15.32,1.82-31.03,3.77-46.65.5-6.06-1.27-12.34-1.65-18.54-2.11-12.39-.91-25.08,1.69-37.14-3.51-1.91-.82-4.71.64-7.1.63-7.98-.03-16.6,1.64-23.79-.79-13.23-4.47-26.49-5.05-40.05-4.99-8.86.04-17.72,0-26.08,0,2.18,16.27,4.63,31.87,6.23,47.55.97,9.57.51,19.28.91,28.92.39,9.29,1.8,18.6,1.41,27.85-.39,9.34,5.32,17.62,3.12,27.4-1.29,5.75,1.19,12.25,1.39,18.43.51,15.82.21,31.67,1.13,47.46,1.73,29.66.07,59.18-1.43,88.79-1.32,26.09-.69,52.26-1.24,78.39-.35,16.64,7.11,33.14.84,49.87-.23.61-.09,1.37-.04,2.06,1.03,14.4,1.96,28.81,3.19,43.2.46,5.39,1.63,10.73,2.65,17.21,16.76-3.05,32.81-5.86,48.8-8.93,6.96-1.34,8.33-2.78,8-9.61-.61-12.67-.33-25.64-3.2-37.85-1.92-8.17,1.57-15.77-.78-23.45,5.11-9.42,3.68-19.16,1.91-29.08-.58-3.26.58-6.82.82-10.25.19-2.74.95-5.72.15-8.18-2.31-7.11.64-12.64,4.26-18.72,4.94.66,9.68,1.73,14.45,1.87,22.95.64,45.91,1.11,68.86,1.39,3.34.04,6.73-1.21,10.04-2.06,11.81-3.05,23.52-5.52,35.94-2.74,6.69,1.5,13.8,1.76,20.71,1.63,14.23-.27,28.46-1.02,42.67-1.87,9.73-.58,19.42-1.82,29.15-2.48,10.06-.69,20.15-.89,30.21-1.58,9.69-.66,19.67-.46,28.95-2.83,9.82-2.51,19.54-1.18,29.24-2.23.98-.11,1.91-.61,2.67-.86ZM608.05,457.7c-13.63,1.67-26.28,3.56-39,4.69-12.77,1.13-25.62,1.4-38.42,2.19-21.47,1.33-42.94,2.74-64.41,4.2-21.83,1.49-43.64,3.99-65.5,4.38-27.43.49-54.89-.81-82.34-1.09-6.44-.07-12.89.85-18.97,1.29,0,22.96-.3,44.58.15,66.17.17,8.27,2.6,10.11,10.6,11.37,2.72.43,5.56.45,8.32.32,29.88-1.4,59.61,1.45,89.4,2.73,23.91,1.03,47.85,1.3,71.65-1.98,2.74-.38,5.59-.7,8.11-1.72,12.82-5.18,26.43-5.53,39.85-5.91,21.85-.63,43.73.02,65.59-.26,6.45-.08,12.88-1.47,19.6-2.3,0-10.17-.06-19.42.01-28.67.12-15.73-4.64-31.23-2.03-47.12.42-2.58-1.71-5.58-2.63-8.29ZM164.54,442.69c8.35-1.88,16.44-3.67,24.5-5.53,4.71-1.09,7.08-4.4,7.4-8.89.45-6.15.72-12.35.57-18.51-.52-21.62-1-43.24-1.98-64.84-.62-13.68,1.12-27.3-.09-41.05-.69-7.87,1.44-16.2,2.28-24.2,2.2-20.96-.18-41.89-8.72-61.67-4.83-11.18-11.64-20.04-24.22-23.8-7.09-2.11-13.03-.36-15.38,6.63-2.28,6.8-5.15,13.61-6.05,20.63-1.79,13.95-2.59,28.04-3.45,42.1-1.19,19.58-2.3,39.18-2.98,58.78-.59,17.28-5.03,35.02,5.1,51.31.45.72.59,2.34.14,2.77-5.15,4.86-.55,7.99,2.01,11.34,5.05,6.62,8.12,13.27,8.67,22.26.7,11.41,5.03,22.66,12.18,32.66ZM681.07,400.77c-.58-7.18-1.31-13.5-1.55-19.83-.7-19.19-1.22-38.39-1.76-57.58-.11-3.78.13-7.57-.07-11.34-.28-5.08-.64-10.17-1.31-15.22-1.57-11.91-3.17-23.81-5.08-35.67-1.62-10.11-3.66-20.15-5.57-30.21-.95-5.01-4.01-5.39-8.55-4.41-5.7,1.23-11.58,1.95-17.41,2.13-8.26.25-16.53-.21-24.8-.34-8.06-.13-9.81,1.72-9.2,9.71.65,8.53,1.34,17.05,1.98,25.58,3.06,41.41,6.1,82.82,9.19,124.22.15,2.04.83,4.04,1.05,6.08.5,4.51,2.89,6.73,7.54,6.72,7.64-.02,15.27.12,22.91.14,10.04.03,20.08,0,32.63,0ZM298.8,675.61c1.26.45,2.65,1.48,3.82,1.28,8.52-1.44,17.09-2.76,25.47-4.8,22.21-5.41,44.26-11.48,66.54-16.58,6.3-1.44,7.84-4.8,8.03-10.01.65-17.5,1.32-35,1.79-52.51.23-8.52.04-17.06.04-25.92-1.2-.6-2.37-1.68-3.58-1.73-16.64-.7-33.28-1.38-49.93-1.79-9.68-.24-19.38.18-29.06,0-7.78-.14-12.92,4.48-13.13,12.18-.22,8.03.55,15.71,7.61,21.26-3.06,4.54-5.06,9.21-8.54,12.17-3.7,3.15-8.81,4.68-12.92,6.73-4.71,20.49.83,39.9,3.87,59.72ZM615.59,563.14c-4.38.22-7.33.58-10.27.47-4.49-.18-9.01-1.26-13.44-.95-19.06,1.35-38.1,3.04-57.15,4.68-9.9.85-11.75,3.24-10.73,13.29.87,8.56,1.54,17.14,2.56,25.67,1.31,10.92,2.62,21.86,4.4,32.71,1.5,9.16,4.2,10.19,13.73,8.98,18.25-2.31,36.57-4.01,54.87-5.92,7.85-.82,15.72-1.52,25.08-2.41-.86-8.58-.86-16.49-2.58-24.02-2.51-11.01-6.38-21.62-5.33-33.3.57-6.37-.71-12.91-1.15-19.19ZM451.97,673.38c-8.23,0-14.39-.27-20.53.07-6.46.37-7.21,1.15-6.55,7.51,1.56,15.01,3.53,29.98,5.22,44.99.5,4.47,3.43,5.19,7.19,5.79,22.64,3.65,45.48,3.76,68.31,3.7,8.09-.02,9.24-2.46,7.07-10.31-1.91-6.91-3.57-13.99-4.26-21.1-.98-10.2-1.02-20.5-1.38-30.76-.23-6.77-2.08-8.97-8.79-8.32-8.51.83-16.95,2.39-24.12,3.44-5.42,10.96-3.04,20.65-1.39,30.35.87,5.08,1.88,10.15,2.41,15.27.6,5.83-4.03,10.31-8.66,8.05-4.83-2.36-10.43-4.99-11.45-11.08-1.24-7.4-1.75-14.93-2.37-22.43-.42-5-.48-10.04-.7-15.18ZM504.92,649.85c-.93-7.97-1.09-15.22-2.78-22.1-1.76-7.13-2.37-14.03-2.04-21.36.58-12.97.09-25.99.02-39,0-.29-.32-.58-1.27-2.19-3.94.21-8.64.34-13.32.76-2.39.22-4.7,1.31-7.08,1.42-11.95.57-13.55,2.14-13.27,14.12.25,10.66.5,21.33.98,31.99.48,10.66,1.03,21.33,1.97,31.96.68,7.75,1.89,8.53,9.96,7.67,8.25-.87,16.48-2,26.83-3.28ZM447.35,567.48c-5.49,0-11.32-.16-17.13.04-8.06.27-9.54,1.55-10.42,9.61-1.19,10.89-2.26,21.66-.23,32.76,2.51,13.74,3.47,27.76,5.22,42.68,7.36.84,14.78,1.68,22.35,2.55,3.46-9.7,6.01-18.4,4.7-27.96-.93-6.73-1.02-13.59-1.35-20.39-.32-6.51,1.64-14.18-1.2-19.27-3.75-6.74,1.23-12.58-1.15-18.48-.13-.32-.31-.61-.79-1.53Z"/>
    <path class="cls-1" d="M341.79,337.49c-17.04.66-32,.39-46.7,2.24-5.51.69-10.27,1.05-15.65-.12-3.51-.76-7.55.28-11.24,1.02-7.87,1.56-11.83-.79-13.1-8.56-.61-3.73-.69-7.55-1.01-11.33-.75-8.91-1.53-17.82-2.25-26.74-.52-6.46-.21-13.2-8.66-17.38,3.89-2.56,6.56-4.31,8.31-5.47,1.09-4.64,1.34-8.82,3.04-12.3,4.06-8.3,5.28-8.65,14.8-7.55,1.73.2,3.54.87,5.16.55,14.99-2.95,29.46,2.73,44.27,2.44,4.86-.1,10.26.64,14.44-1.18,9.8-4.29,19.9-2.52,29.85-3.05,3.66-.2,7.62.99,11.08,2.41,3.42,1.4,4.93,4.05,3.6,8.36-1.46,4.74-1.68,9.85-2.65,16.2,12.83,1.34,24.31,2.53,36.57,3.81.98-7.89,2.16-14.63,2.6-21.41.94-14.43,1.35-28.89,2.25-43.32.79-12.73,5.83-16.8,18.54-16.38,19.04.63,38.11.61,57.15,1.48,13.82.63,27.63,2,41.39,3.48,7.19.78,13.38,9.3,13.3,17.39-.32,32.67-.81,65.35-.96,98.02-.05,11.36.9,22.72,1.04,34.09.11,9.13-.76,8.86-10.27,9.89-16.19,1.75-32.36,4.08-48.34,7.18-12.12,2.35-23.91,6.35-35.9,9.42-3.53.9-5.21,2.73-5.76,6.28-1.9,12.19-3.91,24.37-6.14,36.51-.68,3.68-1.56,7.65-3.6,10.66-1.7,2.51-5.02,4.91-7.99,5.46-24.63,4.58-49.57,6.44-74.6,7.34-1.39.05-2.79-.03-4.18-.12-7.16-.46-8.79-1.62-8.76-8.61.06-12.05.93-24.09,1.11-36.14.17-11.33-.1-22.67-.18-34.01-.03-3.76-.04-7.53-.11-11.29-.11-5.72-.26-11.43-.44-19.26ZM428.02,366.26c36.13,2.35,68.14-11.88,103.19-13.44.67-8.28,1.63-15.36,1.72-22.46.15-10.99-.53-21.98-.41-32.97.12-11.34.87-22.66,1.17-34,.27-10.33.2-20.66.46-30.99.36-14.27-2.27-17.43-16.83-18.99-23.94-2.55-47.93-1.23-71.89-.44-9.51.31-14.66,4.73-15.41,14.35-1.36,17.49-1.76,35.06-2.18,52.6-.05,2.28,1.59,5.25,3.4,6.78,3.74,3.16,4.48,6.66,1.08,9.63-5.09,4.46-5.66,9.84-5.57,15.87.09,6.82-.57,13.65-.37,20.46.33,11.28,1.08,22.56,1.64,33.59ZM375.3,294.82c-1.53,12.44-3.2,22.62-3.9,32.86-.54,7.83-2.91,13.22-12.69,13.02,0,7.89.09,15.05-.02,22.21-.27,17.53-.31,35.08-1.1,52.59-.38,8.51.49,10.66,8.71,10.91,7.26.22,14.63-.81,21.8.01,13.37,1.54,26.09-2.11,39.15-2.57,3.9-11.68,2.04-22.46.33-32.84-4.32-2.94-8.52-5.34-12.08-8.46-1.49-1.3-1.93-4.08-2.29-6.28-.75-4.61-1.06-9.3-1.7-13.93-.83-6.04-2.55-12.07-2.51-18.1.06-7.53,1.87-15.02,2.3-22.57.43-7.69.1-15.42.1-23.72-12.49-1.08-24.12-2.09-36.1-3.13ZM272.29,282.39c-.53,7.4-.89,12.8-1.3,18.2-.29,3.76-.87,7.52-.92,11.29-.08,5.79,1.89,8.22,6.48,8.7,6.57.68,8.89-1,10.02-7.39,1.99-11.28,1.85-22.22-5.88-31.2,5.97-1.1,11.25-2.16,16.57-3.05,5.46-.91,10.92-2.08,16.42-2.39,10.3-.59,14.63,2.82,16.46,13.06,1.09,6.07,1.6,12.28,1.79,18.45.19,6.07-2.98,8.72-9.47,9.62-3.8.53-8.26-.9-13.04,4.27,10.71,0,19.54.1,28.36-.09,1.53-.03,3.43-.94,4.48-2.07,4.06-4.32,8.6-3.64,14.12-.99,1.12-14.33,2.13-27.93,3.27-41.52.44-5.19-2.11-7.99-7.01-8.23-7.59-.36-15.21-.41-22.8-.18-11.39.34-22.8.81-34.16,1.71-3.96.31-8.14,1.44-11.61,3.31-4.49,2.42-8.37,5.96-11.79,8.48Z"/>
    <path class="cls-1" d="M510.76,317.67c.24,4.13.5,8.25.7,12.38.47,9.6-5.4,15.75-15.17,14.83-10.01-.94-19.77-1.68-29.78.83-8.04,2.02-11.73-.59-12.56-9.44-1.14-12.21-1.07-24.56-.99-36.85.11-16.79,1.33-33.6.8-50.36-.19-6.16-3.69-12.07-2.8-18.86.91-7.01,6.82-13.01,13.86-11.29,9.77,2.39,19.47,5.31,28.86,8.89,5.98,2.28,8.38,8.51,9.29,14.18,2.83,17.56,8.74,34.71,6.24,53.06-1,7.33,1.04,15.06,1.7,22.6-.05,0-.1,0-.15.01ZM471.05,237.35c4.49,29.98-2.72,60.09,3.35,90,7.27-.76,13.7-1.43,21.21-2.21,0-7.14.34-13.57-.07-19.96-1.06-16.74-2.57-33.4-5.48-50.01-2.44-13.89-2.84-15.54-19.02-17.82Z"/>
  </g>
  <path class="cls-1" d="M1443.31,325.26q10.19-12.13,1.62-23.54c-1.08,3.66-2.45,6.27-2.51,8.92-.13,6.28-3.3,9.62-9.17,9.22-5.8-.4-8.27,3.03-10.79,6.99-6.07,9.54-10.61,9.95-16.81,1.11-9.9-14.11-19.3-28.58-29.49-42.47-2.72-3.71-7.16-7.48-11.45-8.47-11.17-2.58-15.93,2.78-12.75,13.77,2.5,8.65,2.12,18.45,9.52,25.41,1.14,1.07,1.22,3.56,1.28,5.42.17,4.86.06,9.72.06,15.59-5.99,7.85-11.45,9.86-21.38,7.22-6.2-1.65-12.06-1.82-17.11,3.25-1.26,1.26-3.41,1.63-5.22,2.44-3.81-1.92-7.6-3.7-11.25-5.72-4.05-2.23-5.31-5.15-2.35-9.4,7.11-10.22,6.19-18.26-3.23-28.22,4.32-14.82-2.38-28.45-6.07-42.41-4.2-15.91-9.1-31.63-13.9-47.38-1.1-3.62-2.28-7.68-4.73-10.34-6.12-6.68-5.57-13.67-2.76-21.76,23.69-1.17,46.96-6.47,72.3-5.82,1.75-3.27,4.01-7.51,6.46-12.1,7.12,6.29,15.69,7.02,24.57,6.2,5.35-.49,10.66-1.53,16.01-1.76,9.46-.41,12.84,1.7,14.85,10.86,3.12,14.24,5.38,28.67,8.02,43.01,1.03,5.59-1.24,8.76-6.78,10-2.15.48-4.12,1.71-7.81,3.3,12.39,18.83,26.04,35.52,42.5,53.53.82-6.11,1.92-10.04,1.77-13.91-.81-21.47-1.82-42.94-3-64.39-.42-7.64-1.5-15.25-2.35-22.87-.13-1.13-.56-2.24-.95-3.32-.8-2.24-.74-20.71-.34-22.88,1-5.47,4.59-7.11,9.28-5.85,21.7,5.82,43.32,4.05,65.05.24,9.93-1.74,12.74,1.97,11.86,12.3-1.78,21.11-7.41,41.5-10.78,62.3-1.64,10.13-1.62,20.52-2.4,31.47,2.77.38,4.67,1.16,6.29.77,10.41-2.55,20.84-5.11,31.1-8.17,5.58-1.67,8.53-8.83,6.76-15.25-1.73-6.27-3.86-12.42-5.69-18.66-1.51-5.15-3.44-10.32,1.52-14.97,4.86-4.55,9.74-2.33,15.07-1.12,6.61,1.5,13.47,2.41,20.23,2.46,3.94.03,7.89-2.12,13.04-3.64,4.61,3.45,9.72,8.14,15.6,11.49,12.33,7.01,25.11,13.23,37.61,19.95,5.07,2.73,10.59,5.21,14.58,9.14,2.91,2.87,4.07,7.81,5.29,12.03,1.64,5.66-3.89,5.93-6.61,8.69-7.39,7.51-13.49,16.31-19.97,24.7-1.59,2.05-2.32,4.84-4.09,6.67-4.48,4.66-7.59,9.64-10.33,15.81-3.76,8.45-12.25,14.24-22.2,17.36-9.56-12.37-22.95-9.66-35.26-9.13-17.25.74-34.43,3.05-51.65,4.48-16.44,1.37-32.91,2.48-49.36,3.7-1.48.11-3.76-.44-4.34.33-7.07,9.37-13.43,2.86-19.8-.78-2.52-1.44-4.68-3.52-7.61-5.78Z"/>
  <path class="cls-1" d="M1821.18,412.78c4.11,1.32,7.91,4.88,10.85,8.28,5.74,6.65,11.72,13.42,15.75,21.11,2.41,4.61,1.64,11.05,1.68,16.67.03,4.09-1.43,8.19-1.39,12.27.29,28.47,1.94,56.8,8.76,84.64,2.45,10.03,3.6,20.38,5.43,30.57,1.61,8.91-7.94,16.68-16.74,11.43-15.84-9.46-31-4.24-46.62-1.74-6.45,1.03-12.93,1.84-19.4,2.77-5.45.78-8.76-1.12-9.87-6.9-1.23-6.38-3.19-12.61-4.53-18.97-1.91-9.12-6.49-14.82-16.25-16.99-17.4-3.87-34.94-4.89-52.64-4.77-2.2.01-4.41.73-7.31,1.24,2.24,11.84,5.48,22.72,11.17,32.81,2.83,5.02,6.02,9.84,8.71,14.93,4.74,8.99,1.69,13.24-6.51,19.19-7.71,5.59-14.14,4.25-22.1,2.74-6.2-1.18-12.9.14-19.36.62-10.62.79-11.71.47-15.44-9.41-6.65-17.62-13.09-35.32-19.39-53.07-5.26-14.83-9.99-29.84-15.36-44.62-1.5-4.13-4.52-7.68-6.62-11.62-1.2-2.25-3.32-5.28-2.64-7.03,2.99-7.73-.7-14.41-2.41-21.35-2.39-9.69-5.35-19.24-7.82-28.91-1.85-7.23-3.97-13.58-11.94-16.97-4.88-2.07-4.38-7.12.71-9.66,5.76-2.87,12.04-4.67,18.05-7.05,4.24-1.68,8.54-3.31,12.58-5.41,8.53-4.44,10.26-4.04,14.97,5.11,5.44,10.58,10.76,21.23,16,31.91,8.1,16.52,16.09,33.1,24.95,51.35,5.59-.79,11.64-1.5,17.64-2.54,21.15-3.64,42.78-4.79,63.08-12.79,10.44-4.12,10.93-4.09,9.95-14.75-1.29-14.1-3.04-28.16-4.44-42.26-.3-3.04-.07-6.15.07-9.22.41-8.84,4.5-11.35,11.76-6.1,9.45,6.84,17.67,2.25,26.86-1.85"/>
  <path class="cls-1" d="M1261.5,310.92c-14.55.13-16.02,13.53-22.49,21.81-4.44,5.68-6.97,12.92-11.65,18.34-2.85,3.31-8.16,4.5-13.06,7-3.3-5.38-6.29-9.33-8.32-13.73-5.72-12.4-15.87-15.86-28.41-14.76-4.96.44-9.88,1.39-14.84,1.91-11.41,1.18-22.84,2.11-34.24,3.37-15.3,1.69-13.82,1.81-16.9,12.8-1.34,4.79-3,9.56-5.12,14.06-3.15,6.68-7.59,8.29-14.85,6.73-10.48-2.25-21.05-4.11-31.54-6.35-3.73-.8-7.42-1.98-10.98-3.39-13.93-5.5-18.24-12.82-13.64-26.84,4.41-13.45,10.8-26.23,15.93-39.46,9.69-25.02,19.28-50.07,28.47-75.27,2.06-5.63,2.58-11.59.22-17.99-1.39-3.76.29-9.02,1.55-13.32,1.79-6.13,4.1-12.18,6.87-17.94,1.94-4.05,5.01-7.56,7.84-11.69,6.87,2.39,13.07,5.47,19.6,6.55,6.66,1.1,13.65.24,21.38.24.18-1.93.11-3.63.53-5.21,1.6-6,7.2-8.52,12.16-5.29,1.82,1.18,3.35,3.07,4.54,4.94,15.57,24.42,34.86,45.39,57.75,63.15,4.15,3.22,7.4,7.59,11.35,11.11,5.75,5.11,11.86,9.51,19.77,11.11,2.73.55,5.31,3.04,7.44,5.16,6.76,6.73,13.47,13.53,19.82,20.64,5.05,5.65,5.32,14.88-.99,22.23-5.09,5.91-7.12,12.33-8.18,20.1ZM1164.85,288.6c-7.33-13.47-16.1-22.72-27.42-31.11-3.55,10.94-6.71,20.67-9.85,30.41-1.16,3.6.02,6.89,3.84,6.4,10.74-1.37,21.37-3.58,33.42-5.69Z"/>
  <path class="cls-1" d="M969.68,275.98c5.01,10.18,8.94,19.53,14.06,28.17,5.03,8.49,11.26,16.26,17.17,24.63-8.17,8.41-17.34,13.63-26.89,18.43-9.73,4.89-9.62,5.1-12.55,12.96-5.57,2.74-10.2,4.83-14.65,7.26-4.32,2.35-7.99,2.49-10.95-2-2.1-3.19-4.55-6.21-6.3-9.58-5.81-11.16-11.28-22.5-17.13-33.63-1.31-2.49-3.65-4.45-7.7-5.96.51,7.04.76,14.12,1.62,21.12.71,5.75-.27,10.63-4.69,14.68-19.51-3.07-38.88-.44-58.28-.08-9.27.17-18.64-3.29-27.86-5.51-1.3-.31-2.72-2.87-2.94-4.53-1.12-8.7-2.11-17.44-2.69-26.19-.81-12.19-1.36-24.41-1.75-36.63-.43-13.36-.33-26.74-.91-40.08-.28-6.32-2.15-12.58-2.32-18.9-.17-6.34,1.82-12.81,1.16-19.04-.69-6.62-1.1-12.09,5.64-15.84,5.12-2.84,9.68-6,15.88-1.94,2.26,1.48,5.96,1.01,9,1.03,15.29.11,30.6-.3,45.88.24,12.01.42,17.62,10.02,16.47,22.22-.87,9.25,1.3,18.78,2.35,30.9,4.32-3.75,6.96-5.56,9-7.9,5.79-6.65,11.53-13.37,16.9-20.36,2.94-3.83,6.12-5.69,10.83-4.11,19.97,6.71,39.97,13.34,59.87,20.26,3.46,1.2,6.49,3.63,11.08,6.27-9.54,19.38-25.61,31.43-39.32,44.15Z"/>
  <path class="cls-1" d="M1007.75,512.73c.53,11.56-.54,23.25-5.57,35.55-5.77,14.12-6.77,30.19-9.81,45.42-.22,1.11-.2,2.29-.18,3.43q.22,14.25-14.31,20.43c-7.34-8.36-14.63-16.66-22.13-25.2-3.77,1.74-6.68,3.51-9.85,4.41-2.29.65-4.95.48-7.36.12-15.83-2.36-31.59-5.19-47.46-7.16-5.43-.67-12.51-1.14-16.25,1.7-3.17,2.41-2.71,9.71-3.69,14.87-.72,3.76-.16,8.16-1.95,11.22-3.18,5.42-8.29,8.71-15.24,8.35-7.18-.38-13.79,1.27-18.02,7.28-4.99-.58-9.35-1.37-13.75-1.54-12-.45-18.89-8.36-25.29-16.97-3-4.04-1.51-7.24,2.66-9.31,1.68-.83,3.62-1.14,5.32-1.65,4.51-14.21,8.69-28.09,6.57-42.96-.2-1.43-.08-3.49.79-4.4,8.71-9.13,6.23-21.03,7.6-31.77,1.35-10.56,1.56-21,4.67-31.55,2.55-8.69.52-18.72.52-29.89,5.82-5.94,6.05-15.54,6.91-24.94.88-9.59,4.1-11.39,12.5-6.79,4.92,2.69,9.37,6.92,15.51,1.74,1.28-1.08,5.15.2,7.49,1.19,12.43,5.24,25.09,8.8,38.8,8.3,3.51-.13,7.1,1.85,11.3,3.05-1.24,3.81-2.16,6.61-3.43,10.52,27.72,23.76,63.05,35.74,93.67,56.54ZM882.86,528.14c-.79,8.75-1.41,15.65-2.07,22.85,8.63-.15,16.24,1.02,23.1-5.01-6.87-5.83-13.16-11.16-21.04-17.84Z"/>
  <path class="cls-1" d="M1397.38,567.26c8.93-4.47,8.97-12.82,11.55-20.31,8.09-23.46,16.97-46.65,26.01-69.76,3.2-8.19,8.09-15.7,11.55-23.81,1.72-4.03,2.7-8.72,2.63-13.09-.08-4.51-.79-8.79,4.58-10.28,5.12-1.42,7.77,2.1,9.68,6.14.77,1.63,1.13,3.46,1.4,4.3,6.23.36,11.83-.38,16.72,1.16,14.36,4.5,28.86,3.64,43.45,2.68,2.68-.18,5.36-.6,8.04-.68,5.08-.14,7.9,2.48,8.37,7.5.21,2.29.14,4.6.18,6.9.21,12.63.41,25.25.63,37.88.05,3.06.66,6.21.1,9.14-1.06,5.51-5.62,9.36-10.57,8.37-14.45-2.87-28.96-2.03-43.5-1.75-12.37.23-20.27,2.97-21.29,15.55-.4,4.88-2.03,9.89-4.13,14.35-3.6,7.65-.88,12.94,4.52,18.35,7.17,7.19,13.77,14.95,22.64,21.67,0-4.77-.37-9.59.14-14.31.29-2.69,1.38-6.68,3.22-7.47,2.6-1.12,7.5-1.07,9.23.66,13.45,13.42,30.28,15.08,47.84,15.21,6.89.05,13.81.8,20.65,1.75,6.11.85,7.24,3.56,7.5,12.04.45,14.19,1.18,28.37,2.06,42.53.21,3.39,1.28,6.76,2.22,10.06,2.54,8.87-1.02,14.56-10.45,14.26-13.79-.44-27.64-1.38-41.29-3.35-12.66-1.83-13.1-2.31-17.01,10.1-1.15,3.64-1.47,7.52-2.41,11.23-2.04,8.07-9.05,10.57-15.49,5.5-7.52-5.93-14.75-12.25-22.48-17.88-4.29-3.12-9.1-6.19-14.14-7.45-5.78-1.44-9.13-5.21-13.01-8.89-6.08-5.76-12.06-11.69-18.67-16.8-9.05-6.99-18.78-13.11-27.89-20.02-1.77-1.34-2.65-4.57-2.9-7.04-.26-2.58.36-5.41,1.25-7.9,3.16-8.79,5.82-17.49-.92-26.56Z"/>
  <path class="cls-1" d="M1291.23,610.87c7.99-7.1,15.71-13.9,23.34-20.8.77-.7,1-2.01,1.74-3.6-7.05-8.27-17.22-12.25-26.02-18.12-.62-.41-1.47-.48-2.14-.83-10.16-5.22-11.68-11.69-3.86-21.52-8.34-3.69-16.99-2.71-24.8-3.53-4.19-4.27-2.53-7.71-.23-11.72,11.97-20.92,19.12-43.7,25.6-66.77,2.46-8.75,5.97-17.29,9.8-25.55,2.63-5.69,6.69-6.23,10.67-1.36,3.91,4.8,7.59,7.17,13.73,4.58,1.48-.62,4.12-.17,5.46.82,10.74,7.93,23.91,7.83,36.06,10.74,7.95,1.91,12.8,5.71,16.48,12.67,5.19,9.83,11.11,19.29,16.69,28.92.96,1.65,1.84,3.37,2.59,5.12,5.99,13.94,2.43,19.97-12.69,21.66-10.15,1.13-20.86-1.35-32.28,5.94,7.62,1.17,13.58,2.3,19.59,2.95,9.53,1.02,11.78,3.02,9.75,12.46-2.34,10.84-5.71,21.49-9.12,32.07-2.77,8.58-3.74,16.87-2.18,25.99,1.53,9,1.4,18.41.83,27.57-.23,3.67-2.69,8.57-5.68,10.42-6.02,3.73-13.06,5.86-19.75,8.48-13.88,5.42-27.96,10.39-41.63,16.28-4.1,1.77-7.2,2.77-11.76,1.55-19.17-5.12-38.49-9.68-57.79-14.33-6.61-1.59-8.55-3.88-6.8-10.58,2.8-10.69,5.82-21.36,9.37-31.82,3.15-9.29,8.05-11.29,17.53-9.62,3.45.61,7.39-.19,10.84-1.23,15.13-4.56,16.11-4.26,23.55,9.19.71,1.28,1.82,2.33,3.14,3.97ZM1335.42,523.13c2.69-3.08,4.63-6.86,7.7-8.47,6.24-3.28,8.08-8.99,9.8-14.78.64-2.15.29-5.94-1.14-7.14-9.25-7.69-19.02-14.71-29.46-19.73-8.73,8.05-7.7,17.76-8.65,27.26-1.89,18.9-2.59,18.38,17.55,22.62,1.46.31,3.02.18,4.2.24Z"/>
  <path class="cls-1" d="M1054.96,559.69c-.26-4.99-.5-9.38-.73-13.77-.64-.43-1.29-.87-1.93-1.3,2.73-2.55,5.46-5.1,9.79-9.15-2.7-8.48-5.56-18.77-9.24-28.76-5.04-13.68-10.52-27.2-16.24-40.61-1.38-3.23-4.08-6.21-6.87-8.44-4.67-3.75-5-7.45-.04-10.34,1.27-.74,2.86-1.09,4.34-1.24,11.35-1.2,22.7-2.55,34.08-3.39,15.19-1.11,30.42-1.69,45.62-2.72,8.65-.59,10.49-.1,14.19,7.61,2.55,5.3,5.93,8.19,11.99,8.88,10.53,1.19,13.35,4.91,13.08,16.2-.17,6.86-.66,13.72-1.3,20.56-.68,7.26,1.75,13.61,5.14,19.75.74,1.34,2.15,2.48,2.45,3.88,2.47,11.7,12.18,15.98,21.3,20.59,9.58,4.84,19.85,8.41,29.13,13.75,6.78,3.89,12.56,9.59,18.54,14.77,2.83,2.46,2.03,5.42-.2,8.17-5.06,6.24-10.31,12.35-14.96,18.89-5.76,8.11-11.61,16.27-16.22,25.05-2.75,5.24-5.62,8.87-11.79,9.74-4.98-4.59-9.96-9.33-15.1-13.87-11.34-10.01-22.95-19.72-34.05-29.99-3.82-3.53-7.1-8.01-9.48-12.65-3.72-7.24-6.26-9.68-13.73-9.04-4.39.37-8.7,1.65-14.04,2.72,2.71,7.21,4.83,13.28,7.28,19.22,4.52,10.97,1.87,15.47-10.13,16.58-2.66.25-5.36.02-8.03.08-6.33.14-8.43-3.03-8.98-9.21-.57-6.38-2.11-12.92-4.62-18.8-2.34-5.48-6.02-10.63-13.33-10.96-2.14-.1-4.22-1.53-5.92-2.19ZM1073.81,481.74c7.36,18.66,13.75,34.85,20.62,52.26,8.7-2.03,16.27-3.8,22.29-5.21-1.9-5.26-4.1-9.53-4.94-14.05-1.39-7.5-1.76-15.18-2.82-22.75-1.02-7.26-4.34-11.24-10.7-11.45-7.14-.23-14.31.65-24.44,1.2Z"/>
  <text class="cls-2" transform="translate(547.86 907.43)"><tspan x="0" y="0">UNDER CONSTRUCTION</tspan></text>
</svg>